<?xml version="1.0" standalone="no"?>
<!DOCTYPE svg PUBLIC "-//W3C//DTD SVG 20010904//EN"
 "http://www.w3.org/TR/2001/REC-SVG-20010904/DTD/svg10.dtd">
<svg version="1.0" xmlns="http://www.w3.org/2000/svg"
 width="512.000000pt" height="512.000000pt" viewBox="0 0 512.000000 512.000000"
 preserveAspectRatio="xMidYMid meet">
<metadata>
Created by potrace 1.16, written by Peter Selinger 2001-2019
</metadata>
<g transform="translate(0.000000,512.000000) scale(0.100000,-0.100000)"
fill="#000000" stroke="none">
<path d="M2510 4483 c-95 -16 -190 -62 -332 -159 -118 -82 -180 -145 -238
-244 -96 -160 -113 -297 -64 -503 l26 -109 -30 -26 c-71 -62 -67 -247 9 -409
38 -80 70 -106 126 -101 l41 3 17 -90 c9 -49 27 -115 40 -145 16 -37 25 -81
28 -134 l4 -79 -47 -72 c-27 -39 -88 -109 -136 -155 -86 -80 -96 -86 -349
-210 -143 -70 -368 -173 -500 -229 -132 -56 -255 -109 -273 -118 -70 -36 -126
-159 -157 -351 -17 -100 -17 -169 1 -308 6 -45 2 -58 -36 -134 -39 -77 -42
-88 -35 -134 12 -89 9 -119 -28 -221 -43 -120 -64 -244 -73 -422 -7 -131 -7
-133 15 -133 20 0 21 4 21 119 0 189 44 401 110 530 l22 44 -23 49 c-21 44
-21 52 -10 86 17 48 170 278 210 316 17 17 31 34 31 38 0 15 -53 -23 -112 -81
-43 -41 -59 -51 -63 -40 -13 33 54 147 138 237 50 53 51 55 17 36 -19 -10 -64
-47 -99 -82 -35 -34 -66 -60 -69 -58 -9 10 20 202 44 284 31 108 56 155 98
187 65 50 139 40 232 -31 40 -31 110 -125 147 -199 70 -142 145 -382 176 -566
18 -103 51 -418 51 -481 0 -10 5 -18 10 -18 15 0 12 188 -5 330 -49 399 -178
768 -319 918 -38 41 -101 86 -138 98 -24 8 -7 18 170 93 108 46 306 137 439
201 l242 118 -6 -162 c-4 -116 -3 -168 6 -184 6 -12 48 -41 93 -63 l81 -41
-82 -82 c-44 -45 -81 -90 -81 -100 0 -21 17 -52 247 -446 369 -631 401 -690
454 -815 22 -55 59 -130 80 -167 37 -63 42 -68 74 -68 19 0 35 2 35 5 0 4 -23
45 -52 93 -28 48 -79 134 -114 192 -34 58 -117 202 -184 320 -67 118 -153 267
-190 330 -37 63 -97 165 -133 226 -86 146 -177 318 -177 333 0 7 60 74 133
149 74 75 151 157 173 181 l40 44 31 -84 c118 -317 425 -1109 496 -1279 47
-113 109 -274 137 -358 l52 -152 108 0 108 0 6 38 c24 157 39 304 40 402 1 99
-5 146 -42 328 -52 259 -95 403 -169 570 -71 161 -93 224 -84 237 5 5 11 30
14 55 3 25 11 69 18 99 l11 54 16 -26 c9 -15 20 -27 25 -27 4 0 5 -4 2 -10 -3
-5 -1 -10 5 -10 6 0 8 -5 5 -10 -3 -6 -1 -10 5 -10 6 0 8 -5 5 -10 -3 -6 1
-13 9 -16 9 -3 14 -9 12 -13 -2 -3 2 -15 11 -26 14 -20 14 -20 29 -1 17 23 17
33 0 196 -7 69 -12 127 -10 129 1 2 13 -7 26 -20 20 -21 28 -52 56 -231 68
-424 74 -485 79 -806 3 -167 7 -301 9 -299 9 9 34 290 34 388 0 187 -28 436
-85 741 -14 73 -25 137 -25 143 0 5 37 -27 83 -71 45 -44 91 -86 102 -94 11
-8 -21 27 -71 77 -81 82 -93 99 -118 167 -15 41 -44 99 -65 128 -57 82 -58 84
-6 47 55 -38 351 -323 367 -352 8 -16 4 -26 -23 -53 -18 -19 -38 -33 -44 -30
-6 2 -12 -5 -12 -15 -1 -13 25 -37 88 -80 49 -34 94 -69 98 -78 15 -28 33
-312 26 -416 -13 -198 -91 -573 -169 -815 -13 -41 -36 -115 -51 -165 -16 -50
-30 -96 -33 -103 -8 -23 25 -12 36 12 16 35 120 385 147 494 12 51 24 94 26
96 2 1 47 8 99 14 52 6 142 18 199 27 85 13 106 14 113 3 14 -20 1 -138 -18
-159 -27 -30 -394 -101 -426 -83 -7 4 -5 -1 4 -11 16 -17 24 -18 115 -6 205
26 308 56 332 93 21 33 28 180 9 195 -13 11 -45 8 -385 -41 -38 -5 -38 -9 -18
85 48 225 62 418 46 624 -14 175 -15 177 -120 249 l-72 49 35 36 c20 20 36 46
36 58 0 20 -134 175 -208 241 -33 29 -21 25 113 -39 330 -156 533 -248 599
-270 66 -23 70 -26 92 -74 51 -111 68 -214 68 -425 l1 -195 -48 -193 c-27
-109 -47 -209 -45 -230 3 -36 4 -34 25 33 35 111 81 301 99 410 12 74 15 136
11 235 -7 157 -30 260 -81 356 -38 72 -29 84 30 39 46 -35 91 -133 116 -251
27 -130 29 -344 4 -458 -19 -86 -16 -118 4 -36 7 28 14 49 16 47 9 -8 44 -213
44 -253 0 -63 -50 -151 -135 -240 -72 -74 -90 -102 -45 -71 29 20 99 87 138
131 18 21 35 36 37 34 17 -17 95 -350 111 -476 6 -48 24 -75 40 -60 14 14 -84
452 -120 540 -12 27 -13 44 -6 63 16 42 12 135 -11 246 -16 78 -22 147 -24
279 -2 132 -7 198 -23 267 -44 197 -125 303 -234 303 -50 0 -146 40 -535 224
-214 100 -377 184 -414 211 -34 25 -65 45 -69 45 -5 0 -11 13 -15 30 -3 16
-14 39 -24 52 -16 21 -17 33 -5 156 l12 133 42 55 c63 84 90 143 108 238 15
82 17 86 43 86 38 0 73 41 110 128 45 109 59 166 59 252 0 90 -23 140 -66 140
-19 0 -24 4 -20 18 41 135 56 204 56 253 0 32 5 91 12 129 10 61 10 83 -4 151
-40 191 -123 284 -254 283 -60 0 -62 1 -80 34 -43 80 -132 131 -282 161 -51
11 -180 13 -232 4z m275 -47 c28 -8 43 -15 36 -15 -8 -1 6 -14 32 -31 89 -56
139 -175 101 -239 -10 -17 -21 -31 -24 -31 -3 0 -5 24 -6 53 -1 59 -19 101
-72 159 -41 45 -117 98 -141 98 -9 0 12 -18 46 -40 108 -68 176 -195 142 -265
-23 -46 -37 -42 -32 8 16 141 -96 271 -252 292 -59 7 -184 -16 -218 -41 -19
-14 -19 -16 -2 -9 60 21 165 36 214 31 151 -18 235 -103 236 -239 0 -57 -3
-71 -19 -83 -11 -8 -22 -14 -25 -14 -3 0 -7 24 -8 54 -4 126 -100 216 -230
216 -58 0 -54 18 5 23 26 2 14 3 -27 2 -67 -2 -83 -7 -179 -55 -121 -62 -238
-136 -267 -171 l-20 -23 25 15 c84 53 216 122 285 150 105 42 196 44 271 6 56
-29 88 -59 103 -100 14 -36 14 -117 1 -117 -5 0 -10 12 -10 26 0 42 -29 90
-72 121 -39 26 -48 28 -137 28 l-96 -1 -192 -97 c-105 -53 -195 -97 -200 -97
-12 0 -129 -121 -142 -147 -18 -35 -7 -28 51 33 57 61 98 87 122 78 10 -4 -16
-31 -87 -91 -56 -47 -103 -80 -105 -73 -8 23 21 99 57 153 54 82 203 214 316
281 55 33 94 61 87 64 -20 6 -220 -119 -283 -178 -64 -60 -73 -63 -35 -11 38
51 92 93 221 171 133 81 167 97 240 116 60 16 216 10 290 -10z m113 -35 c69
-36 122 -111 122 -174 0 -19 -7 -40 -15 -47 -13 -11 -14 -10 -10 1 8 22 -21
106 -50 145 -15 20 -45 49 -68 65 -45 33 -35 38 21 10z m-391 -57 c-3 -3 -12
-4 -19 -1 -8 3 -5 6 6 6 11 1 17 -2 13 -5z m641 -90 c41 -8 108 -66 132 -115
11 -21 20 -40 20 -43 0 -3 -25 12 -56 34 -80 56 -137 62 -233 23 -9 -4 -6 5 7
22 12 15 22 36 22 47 0 30 48 44 108 32z m-532 -43 c49 -22 92 -75 96 -117 4
-44 -12 -44 -27 -1 -44 127 -178 138 -340 27 -91 -62 -187 -96 -228 -81 -18 7
-11 12 38 30 33 12 107 47 164 78 162 86 221 98 297 64z m-9 -61 c32 -19 59
-57 49 -67 -3 -3 -21 8 -41 26 -52 45 -118 44 -211 -5 -38 -20 -89 -47 -114
-59 -50 -26 -115 -41 -105 -25 3 6 15 10 26 10 23 0 60 18 142 68 66 41 148
71 192 72 17 0 44 -9 62 -20z m590 -11 c31 -11 101 -77 118 -110 23 -43 29
-128 13 -173 l-14 -39 -21 36 c-19 32 -108 96 -118 85 -3 -2 16 -19 40 -36 68
-48 105 -113 105 -182 0 -31 -7 -81 -16 -111 l-16 -54 -27 35 c-14 19 -41 50
-58 69 -28 29 -33 41 -33 83 l0 50 57 -72 58 -73 9 32 c6 20 5 45 -2 69 -13
41 -84 122 -108 122 -9 0 6 -21 35 -50 49 -49 66 -82 59 -114 -4 -22 -118 120
-118 148 0 29 -41 114 -74 154 l-28 32 46 0 c26 0 62 -6 80 -14 48 -20 104
-83 121 -135 13 -44 14 -45 14 -13 1 44 -19 81 -69 126 -59 53 -103 70 -166
62 -39 -4 -55 -2 -64 9 -10 12 -7 15 17 20 44 10 50 13 25 14 -13 1 -32 -3
-42 -9 -13 -7 -21 -6 -29 4 -9 10 -2 17 31 29 70 26 116 28 175 6z m-144 -138
c50 -55 64 -87 77 -167 25 -166 35 -212 52 -263 23 -70 23 -71 -13 -71 -16 0
-28 4 -25 9 3 5 -17 30 -45 56 l-51 48 -85 -6 c-56 -4 -98 -13 -124 -26 l-39
-21 0 31 c0 17 -4 28 -10 24 -14 -9 -12 -71 3 -83 6 -5 21 -12 32 -14 17 -3
14 -7 -18 -27 -56 -35 -162 -34 -207 1 -32 25 -33 26 -11 37 17 10 21 20 19
59 l-1 47 -4 -42 c-4 -45 -13 -52 -32 -29 -36 43 -199 78 -264 57 -31 -11 -94
-69 -122 -113 -6 -10 -32 -19 -68 -23 -58 -7 -59 -6 -52 17 4 12 30 60 58 106
l51 84 -15 46 c-18 62 -17 167 4 215 14 32 20 37 49 37 18 0 58 14 88 30 104
57 96 55 173 42 40 -6 92 -16 117 -21 96 -21 234 -5 318 38 l37 19 36 -29 c20
-16 52 -46 72 -68z m-953 -59 c-18 -26 -51 -66 -74 -90 -40 -42 -127 -112
-140 -112 -3 0 -6 15 -6 34 0 27 7 38 38 59 20 14 75 57 122 95 47 38 87 68
89 66 2 -2 -11 -25 -29 -52z m14 -84 c-4 -38 -16 -79 -30 -104 -24 -43 -169
-180 -177 -167 -3 5 -8 22 -11 38 -6 28 -4 32 27 43 42 15 113 75 131 111 8
14 17 42 21 61 7 31 32 80 41 80 2 0 1 -28 -2 -62z m-74 -57 c-19 -38 -81 -96
-127 -120 -21 -11 -23 -9 -23 13 0 19 9 30 38 45 20 10 57 37 82 60 25 22 46
40 48 41 1 0 -7 -18 -18 -39z m99 -92 c1 -16 -13 -42 -36 -69 -21 -24 -37 -45
-35 -47 7 -9 0 -20 -20 -32 -22 -13 -22 -13 1 13 14 14 20 26 14 26 -12 0 -47
-37 -62 -67 -17 -33 -12 -52 5 -20 23 43 37 31 14 -13 -11 -22 -27 -40 -36
-40 -29 0 -51 19 -58 51 -6 30 0 38 94 135 55 56 100 109 101 116 1 22 18 -25
18 -53z m1116 -145 c18 -38 12 -77 -12 -72 -10 2 -22 29 -34 73 -10 39 -19 72
-19 74 -1 14 52 -47 65 -75z m-750 17 c48 -23 34 -27 -25 -6 -23 8 -50 15 -59
14 -23 -1 39 -28 67 -29 12 0 22 -4 22 -8 0 -17 -170 18 -194 40 -6 4 26 8 70
8 56 0 90 -6 119 -19z m544 -5 c22 -12 20 -13 -30 -19 -30 -3 -72 -9 -94 -12
l-40 -5 50 25 c56 28 79 30 114 11z m-689 -22 c31 -11 32 -13 10 -14 -14 0
-53 -6 -88 -14 l-63 -13 33 34 c34 35 33 35 108 7z m540 16 c-8 -5 -23 -10
-33 -10 -10 0 -15 -4 -12 -10 4 -6 -1 -7 -11 -3 -14 5 -13 8 7 19 29 16 73 20
49 4z m205 -41 l30 -20 -30 5 c-118 21 -112 19 -85 27 41 12 54 10 85 -12z
m-592 -38 c22 -5 50 -19 63 -32 52 -49 17 -169 -59 -201 -48 -20 -177 -17
-210 5 -38 24 -65 72 -73 126 -9 60 10 94 56 102 54 10 181 9 223 0z m586 -16
c16 -8 31 -22 35 -30 17 -47 -4 -134 -41 -167 -27 -24 -101 -41 -150 -33 -50
7 -104 49 -123 96 -10 22 -15 27 -21 17 -6 -9 -9 -4 -9 15 0 42 27 87 63 102
44 20 209 20 246 0z m-1124 -70 c17 -16 25 -35 25 -57 0 -19 9 -51 20 -73 11
-22 20 -46 20 -54 0 -17 61 -153 67 -148 1 2 -9 42 -23 88 -22 71 -25 98 -21
172 3 48 7 90 9 93 3 2 30 2 61 -2 l56 -7 20 -67 c26 -84 58 -114 138 -130
142 -30 256 22 288 130 11 38 35 60 65 60 38 0 54 -17 81 -85 13 -33 25 -52
27 -43 2 13 10 9 35 -19 24 -25 45 -37 79 -43 56 -11 146 2 182 25 27 18 62
82 72 133 4 17 13 32 20 32 20 0 9 -157 -27 -375 -45 -272 -48 -282 -141 -420
-161 -239 -161 -239 -338 -240 -170 0 -208 12 -282 89 -32 34 -58 57 -58 52 0
-5 8 -18 18 -29 16 -19 16 -20 -6 -8 -12 7 -63 51 -112 99 -102 100 -130 151
-155 282 -25 133 -36 180 -44 185 -4 2 -8 -9 -8 -25 0 -54 -44 -77 -89 -46
-31 22 -92 162 -104 239 -12 79 0 169 27 199 23 26 69 23 98 -7z m1362 -2 c24
-36 22 -149 -5 -228 -51 -151 -89 -215 -128 -215 -8 0 -14 10 -14 24 0 32 38
247 45 254 12 12 4 -101 -10 -135 -18 -43 -18 -43 -2 -43 6 0 22 15 35 33 18
28 22 46 21 103 0 41 5 83 14 104 l15 34 7 -59 c10 -92 11 -94 19 -33 5 31 5
75 1 98 -6 35 -10 41 -28 38 -17 -2 -27 -17 -42 -63 l-20 -60 -3 65 c-3 60 -1
67 23 88 34 29 51 28 72 -5z m-764 -1223 c10 -17 21 -30 23 -30 6 0 -9 34 -31
70 -12 19 -24 40 -27 45 -4 7 36 9 115 7 116 -3 123 -4 145 -28 19 -22 22 -36
22 -104 0 -89 -5 -106 -31 -121 -25 -13 -63 7 -209 110 -223 158 -274 197
-341 261 l-68 65 -7 77 -6 77 198 -199 c109 -110 207 -214 217 -230z m397 168
c-14 -149 -24 -178 -80 -233 l-40 -39 0 77 c0 58 -5 88 -20 117 -11 22 -20 43
-20 47 0 5 25 27 54 51 30 23 68 60 83 81 15 22 30 38 31 36 2 -2 -2 -63 -8
-137z m-616 -97 c50 -37 154 -110 231 -161 77 -51 144 -96 149 -101 7 -6 -150
-233 -229 -331 l-22 -26 -101 96 c-98 94 -102 100 -140 197 -107 267 -141 416
-113 487 l10 27 62 -60 c34 -34 102 -91 153 -128z m-219 -131 c15 -47 41 -118
56 -158 16 -40 29 -75 29 -78 0 -13 -164 -174 -177 -174 -27 0 -161 68 -171
86 -5 11 -6 88 -3 185 l6 166 105 104 105 104 11 -75 c6 -42 24 -114 39 -160z
m894 -58 c20 -136 41 -325 41 -365 0 -14 -13 1 -38 44 -77 131 -172 239 -211
239 -8 0 13 28 46 63 69 71 123 151 124 181 1 47 19 -28 38 -162z m66 -42 c29
-58 31 -67 8 -49 -24 20 -55 99 -38 99 2 0 16 -22 30 -50z m-212 -130 c59 -41
61 -48 36 -178 l-22 -116 -14 54 c-19 73 -77 192 -116 237 l-32 36 57 -5 c37
-3 69 -13 91 -28z m-429 -272 c35 -33 36 -32 102 62 27 38 52 70 55 70 12 0
41 -53 43 -79 4 -36 38 -153 44 -147 2 3 -6 37 -17 77 -12 39 -20 73 -18 75 6
7 80 -98 80 -113 0 -7 6 -13 13 -13 9 0 11 -11 8 -32 -18 -137 -24 -270 -24
-555 l-1 -328 -36 105 c-20 58 -40 106 -44 108 -4 2 -5 10 -2 19 4 11 2 14 -5
9 -8 -5 -10 -2 -6 8 3 9 1 16 -5 16 -6 0 -8 7 -5 15 4 8 1 15 -6 15 -6 0 -8 5
-5 10 3 6 1 10 -5 10 -6 0 -8 5 -4 11 3 6 2 14 -3 18 -6 3 -48 107 -93 231
-46 124 -111 296 -146 383 l-62 158 57 -53 c31 -29 69 -65 85 -80z m459 -138
c14 -41 48 -131 77 -200 92 -223 128 -385 132 -596 2 -98 0 -113 -22 -154
l-24 -45 -8 65 c-45 359 -97 640 -183 985 -14 54 3 21 28 -55z m227 -1127
c-11 -17 -11 -17 -6 0 3 10 7 33 8 50 l1 32 4 -32 c2 -18 -1 -41 -7 -50z"/>
<path d="M2455 4280 c-12 -5 5 -7 45 -3 36 3 67 7 69 9 9 8 -95 2 -114 -6z"/>
<path d="M3085 4223 c74 -9 95 -15 131 -40 35 -23 37 -23 19 -3 -32 35 -70 50
-127 49 -29 -1 -39 -4 -23 -6z"/>
<path d="M3103 4113 c9 -2 23 -2 30 0 6 3 -1 5 -18 5 -16 0 -22 -2 -12 -5z"/>
<path d="M3134 4001 c4 -6 16 -16 28 -22 15 -8 18 -8 14 0 -4 6 -16 16 -28 22
-15 8 -18 8 -14 0z"/>
<path d="M2365 3751 c-24 -7 -16 -9 40 -10 39 -1 119 -8 179 -16 80 -10 135
-12 210 -5 55 5 121 7 146 4 38 -5 42 -3 26 7 -14 9 -56 10 -150 6 -72 -3
-162 -1 -201 4 -107 15 -217 19 -250 10z"/>
<path d="M2304 3473 c-12 -2 -30 -13 -40 -25 -18 -20 -18 -20 26 2 63 32 64
33 14 23z"/>
<path d="M2350 3459 c-46 -19 -107 -89 -77 -89 7 0 23 9 34 20 18 16 23 17 33
6 28 -35 104 -25 119 16 8 22 8 22 26 -5 9 -15 26 -27 37 -27 20 0 20 1 3 27
-16 23 -16 25 -1 20 31 -12 16 3 -24 23 -42 21 -108 25 -150 9z m40 -39 c0 -5
-4 -10 -10 -10 -5 0 -10 5 -10 10 0 6 5 10 10 10 6 0 10 -4 10 -10z"/>
<path d="M2569 3387 c9 -12 10 -17 2 -17 -7 0 -9 -4 -6 -10 3 -5 11 -10 16
-10 16 0 6 43 -11 48 -13 5 -13 3 -1 -11z"/>
<path d="M2368 3343 c12 -2 32 -2 45 0 12 2 2 4 -23 4 -25 0 -35 -2 -22 -4z"/>
<path d="M2488 3319 c-18 -13 -52 -23 -105 -28 l-78 -8 65 -1 c66 -2 150 25
150 48 0 13 0 13 -32 -11z"/>
<path d="M2895 3460 c-22 -8 -53 -40 -39 -40 4 0 -1 -6 -12 -14 -17 -13 -18
-15 -2 -21 22 -9 38 1 38 23 0 13 3 12 16 -6 21 -30 88 -31 106 -2 16 25 25
25 33 1 7 -22 53 -37 68 -22 8 8 6 11 -4 11 -9 0 -26 12 -40 26 -42 47 -113
65 -164 44z"/>
<path d="M2872 3349 c7 -5 36 -8 63 -8 60 1 50 6 -23 12 -32 2 -48 1 -40 -4z"/>
<path d="M2896 3301 c16 -17 127 -26 150 -13 15 9 6 11 -46 12 -36 0 -76 3
-90 6 -19 5 -22 4 -14 -5z"/>
<path d="M1869 3363 c-7 -22 -10 -69 -7 -123 7 -113 24 -148 24 -48 -1 78 19
151 37 145 7 -2 18 -21 25 -43 13 -38 12 -39 -18 -64 -35 -29 -39 -63 -14
-116 18 -38 47 -59 70 -50 19 7 18 80 -1 176 -21 101 -22 104 -50 134 -33 36
-51 33 -66 -11z m114 -220 c4 -32 2 -40 -9 -36 -20 7 -27 39 -14 63 14 27 16
25 23 -27z"/>
<path d="M2562 3124 c-12 -8 -30 -30 -39 -47 -9 -18 -37 -57 -63 -87 -46 -53
-86 -118 -78 -126 3 -2 25 24 50 59 25 34 55 71 67 81 18 16 21 17 27 3 3 -8
20 -21 37 -28 69 -26 117 -53 117 -65 0 -7 -5 -25 -10 -39 -8 -20 -7 -26 2
-23 7 3 17 19 23 36 12 41 33 41 37 0 4 -43 23 -33 23 12 0 46 9 58 54 70 29
7 42 18 51 41 l13 30 29 -43 c40 -59 70 -117 79 -153 7 -29 7 -28 8 10 1 57
-45 137 -147 253 -18 21 -22 22 -16 7 4 -11 9 -38 12 -59 4 -32 2 -38 -11 -33
-10 4 -29 -7 -51 -29 -18 -18 -44 -34 -55 -34 -28 0 -71 22 -95 49 -23 25 -56
31 -36 6 15 -18 -1 -20 -18 -3 -24 24 -7 98 23 98 7 0 16 -6 18 -12 3 -7 6 -1
6 15 1 32 -21 36 -57 11z"/>
<path d="M3017 2885 c-22 -146 -39 -252 -43 -270 -4 -16 -3 -17 4 -5 23 36 53
191 50 257 l-3 68 -8 -50z"/>
<path d="M2280 2909 c1 -64 34 -231 55 -277 34 -75 41 -61 11 21 -14 36 -32
109 -41 163 -14 89 -25 130 -25 93z"/>
<path d="M2443 2833 c-24 -16 -32 -66 -13 -78 6 -3 10 3 10 14 0 34 19 34 93
0 63 -30 82 -34 152 -34 56 1 90 6 113 18 45 24 40 27 -15 11 -62 -19 -114
-18 -187 4 l-61 17 140 5 c77 3 146 2 154 -1 8 -4 29 0 47 7 43 18 41 18 48
-11 8 -33 26 -23 26 14 0 38 -25 59 -51 43 -21 -13 -70 -14 -109 -3 -15 5 -40
2 -64 -7 -31 -12 -42 -13 -58 -3 -15 9 -44 11 -104 6 -59 -5 -84 -4 -84 4 0
15 -10 13 -37 -6z"/>
<path d="M2705 2700 c-55 -4 -74 -8 -62 -14 24 -11 125 -2 139 12 7 7 10 11 8
10 -3 -1 -41 -4 -85 -8z"/>
<path d="M2643 2620 c-66 -15 -123 -76 -123 -130 1 -21 3 -18 15 13 7 22 23
50 36 63 40 42 130 56 194 30 19 -8 35 -11 35 -7 0 12 -76 41 -103 40 -12 -1
-37 -4 -54 -9z"/>
<path d="M2708 1280 c2 -124 5 -232 6 -240 7 -32 4 377 -3 420 -4 25 -5 -56
-3 -180z"/>
<path d="M2724 895 c0 -49 1 -71 3 -48 2 23 2 64 0 90 -2 26 -3 8 -3 -42z"/>
<path d="M2070 1534 c-59 -46 -65 -52 -57 -60 9 -9 128 68 124 80 -6 19 -23
14 -67 -20z"/>
<path d="M3386 1452 c-3 -6 0 -14 7 -19 58 -45 165 -86 127 -49 -28 26 -128
77 -134 68z"/>
<path d="M4039 925 c-4 -5 -10 -77 -13 -160 -12 -260 -26 -425 -52 -593 -15
-90 -23 -166 -20 -169 3 -3 11 -3 19 0 19 7 63 341 77 587 10 180 4 360 -11
335z"/>
<path d="M4255 714 c-9 -14 -49 -61 -89 -103 -39 -42 -78 -85 -86 -95 -14 -18
-14 -19 7 -8 40 22 160 147 182 190 23 46 14 58 -14 16z"/>
<path d="M790 645 c56 -68 599 -361 616 -333 15 23 -27 47 -419 232 -65 30
-139 70 -165 87 -25 17 -40 23 -32 14z"/>
<path d="M1430 223 c-10 -60 -31 -155 -46 -205 -4 -13 0 -18 14 -18 16 0 21
11 30 68 15 89 26 222 19 222 -3 0 -10 -30 -17 -67z"/>
<path d="M1677 75 c3 -33 9 -64 14 -69 12 -14 10 19 -6 79 l-14 50 6 -60z"/>
</g>
</svg>