<?xml version="1.0" standalone="no"?>
<!DOCTYPE svg PUBLIC "-//W3C//DTD SVG 20010904//EN"
 "http://www.w3.org/TR/2001/REC-SVG-20010904/DTD/svg10.dtd">
<svg version="1.0" xmlns="http://www.w3.org/2000/svg"
 width="512.000000pt" height="512.000000pt" viewBox="0 0 512.000000 512.000000"
 preserveAspectRatio="xMidYMid meet">
<metadata>
Created by potrace 1.16, written by Peter Selinger 2001-2019
</metadata>
<g transform="translate(0.000000,512.000000) scale(0.100000,-0.100000)"
fill="#000000" stroke="none">
<path d="M1207 4736 c-52 -19 -71 -39 -97 -98 -19 -44 -22 -69 -22 -172 1
-184 36 -364 113 -578 35 -98 40 -120 35 -168 -5 -43 -2 -63 13 -93 12 -24 15
-39 9 -43 -6 -4 -3 -11 9 -18 35 -20 83 -60 83 -68 0 -5 -12 -27 -26 -50 -26
-40 -26 -42 -8 -55 11 -8 18 -22 16 -32 -3 -19 14 -51 57 -109 23 -30 25 -40
22 -126 -4 -153 -21 -194 -95 -230 l-31 -16 33 0 33 0 -18 -31 c-10 -17 -34
-45 -53 -61 l-35 -30 33 4 c32 5 33 3 27 -21 -18 -71 -25 -148 -23 -266 2
-122 2 -125 7 -45 l6 85 18 -65 c10 -36 35 -97 56 -136 32 -59 39 -84 45 -155
10 -113 10 -130 1 -230 -10 -106 11 -211 59 -303 24 -46 36 -87 45 -156 26
-187 101 -382 211 -546 54 -80 193 -231 265 -287 22 -17 -8 18 -67 78 -59 61
-128 138 -153 171 -120 163 -212 390 -239 594 l-6 45 19 -30 c11 -16 34 -70
52 -120 41 -116 64 -163 134 -260 69 -98 116 -147 175 -187 69 -47 149 -128
175 -178 50 -96 51 -79 4 59 -49 144 -58 205 -39 255 16 42 1 30 -20 -16 l-18
-42 -7 40 c-11 69 -13 70 -14 9 0 -33 3 -77 8 -97 5 -21 8 -38 6 -38 -3 0
-109 168 -128 205 -23 42 -21 29 8 -55 14 -40 25 -75 25 -78 0 -2 -21 19 -47
48 -99 109 -141 201 -169 374 l-14 81 4 -95 c3 -52 7 -104 10 -115 4 -11 -1
-4 -10 15 -25 54 -44 157 -45 250 -1 47 -3 76 -6 65 -2 -11 -7 -27 -10 -35 -3
-8 -5 -33 -4 -55 1 -38 1 -39 -14 -20 -67 84 -131 249 -141 365 -11 111 -1
115 61 23 30 -44 85 -113 122 -154 94 -103 141 -161 206 -254 31 -44 70 -96
87 -115 28 -32 30 -33 24 -10 -4 14 -25 61 -48 105 l-40 80 -6 170 c-5 161 -7
173 -34 225 -16 30 -46 79 -68 109 l-40 53 35 36 c34 33 36 34 31 11 -2 -13
-1 -17 2 -9 4 8 11 23 16 34 8 14 7 17 -4 11 -7 -3 -4 1 7 10 11 9 19 23 17
32 -2 8 1 12 7 8 7 -4 8 0 4 11 -5 13 -3 15 7 9 9 -5 11 -4 6 3 -10 17 -12 16
-37 -25 -13 -21 -46 -62 -73 -91 -37 -39 -48 -57 -41 -67 106 -150 115 -174
122 -335 l5 -125 -28 35 c-16 19 -65 73 -109 120 -91 96 -114 126 -156 208
-17 31 -28 46 -24 32 10 -46 -58 94 -76 155 l-18 60 29 -35 c19 -23 27 -42 24
-55 -4 -16 -3 -17 5 -5 6 9 11 10 11 3 0 -18 145 -167 200 -207 28 -20 50 -34
50 -31 0 3 -49 64 -109 135 -146 174 -200 278 -227 435 l-13 80 3 -85 c2 -47
6 -94 10 -105 3 -11 -3 0 -15 23 -51 108 -47 240 11 356 l29 58 -34 -21 c-48
-28 -44 -7 5 25 46 31 52 47 13 38 l-28 -7 36 39 c20 22 42 50 49 64 l13 25
-24 -21 c-26 -23 -63 -44 -76 -44 -4 1 4 7 19 15 28 16 53 71 62 140 4 29 3
36 -5 25 -7 -11 -9 -4 -5 25 3 22 11 81 16 130 15 130 43 224 106 354 30 63
53 116 50 118 -4 5 -73 -112 -115 -195 -17 -34 -41 -102 -52 -150 -12 -48 -22
-88 -24 -90 -1 -2 -16 19 -32 45 -30 49 -33 73 -7 73 21 0 17 18 -6 25 -11 3
-20 11 -20 16 0 15 51 88 168 239 58 74 110 141 116 149 6 8 -7 3 -29 -12 -55
-37 -78 -34 -31 5 21 17 55 49 75 71 54 59 239 204 296 232 85 42 256 78 473
99 l54 5 -6 -82 c-3 -45 -2 -170 3 -277 l8 -195 2 150 c2 157 16 394 24 402
16 15 526 -67 612 -99 17 -6 55 -30 85 -52 89 -67 98 -70 38 -13 -32 30 -76
62 -98 72 -43 19 -50 38 -26 71 14 18 15 18 21 2 10 -25 21 -22 34 10 6 15 52
65 102 112 51 47 150 142 220 212 163 161 239 202 328 178 75 -20 118 -94 128
-219 10 -134 -39 -381 -111 -554 -40 -97 -46 -161 -22 -240 l14 -47 -38 -34
c-22 -19 -52 -42 -69 -50 -33 -17 -81 -21 -81 -7 0 9 61 41 78 41 6 0 14 5 17
11 5 7 -5 8 -32 3 l-38 -7 36 40 c22 24 39 56 43 79 4 21 14 51 22 66 20 39 7
35 -42 -13 -32 -32 -51 -42 -85 -45 l-44 -5 32 15 c30 14 129 144 118 155 -3
2 -31 -18 -62 -46 -59 -50 -93 -66 -120 -56 -9 4 0 14 31 32 122 70 226 304
226 509 0 99 -13 145 -51 176 -65 55 -158 18 -289 -114 -106 -106 -176 -199
-192 -253 -6 -23 -13 -44 -14 -46 -2 -2 -18 7 -36 20 l-33 24 23 -35 c43 -64
63 -99 64 -107 0 -4 5 -14 11 -22 10 -12 9 -13 -6 -8 -61 23 -68 17 -17 -15
30 -18 98 -64 150 -102 81 -59 90 -67 60 -61 -19 4 -48 14 -65 23 -26 13 -24
8 20 -40 54 -58 126 -199 83 -162 -22 19 -22 19 1 -13 21 -31 41 -48 25 -21
-4 7 -3 8 5 4 6 -4 9 -11 6 -15 -2 -5 5 -17 16 -27 32 -29 82 -104 69 -104 -7
0 -24 8 -38 18 -51 35 -57 36 -24 3 17 -18 32 -39 32 -47 0 -9 -14 -49 -31
-91 -29 -70 -31 -81 -26 -161 3 -48 8 -96 13 -107 7 -18 6 -19 -11 -5 -13 10
-7 -7 18 -53 l38 -69 -30 21 c-16 12 -34 21 -39 21 -19 0 -24 37 -33 265 -6
132 -16 255 -24 290 -17 68 -83 205 -121 250 l-25 30 16 -40 c9 -22 31 -76 50
-120 64 -154 67 -172 74 -417 6 -221 7 -227 30 -252 13 -14 28 -23 33 -20 4 3
20 -9 34 -26 32 -37 57 -52 109 -61 32 -6 27 -7 -27 -5 -38 1 -68 1 -68 1 0
-1 8 -17 17 -36 25 -47 26 -267 2 -319 l-16 -35 5 71 c6 89 -9 154 -59 263
-26 55 -34 81 -24 77 26 -10 16 1 -19 22 l-34 20 39 -82 c44 -94 69 -188 69
-262 0 -92 -54 -231 -110 -281 -16 -14 -27 -30 -24 -35 8 -13 -26 -49 -40 -41
-6 3 -8 3 -4 -2 11 -12 -6 -37 -113 -165 -106 -128 -139 -176 -139 -200 1 -8
9 -1 18 15 36 64 70 99 172 174 58 42 121 97 140 121 30 40 27 38 -26 -15 -33
-33 -82 -75 -110 -94 -44 -30 -41 -26 35 50 46 46 95 101 109 123 23 33 27 36
34 20 6 -15 7 -13 4 6 -3 18 4 35 26 60 l30 35 -16 -31 c-12 -26 -13 -43 -6
-90 11 -67 13 -148 4 -182 -6 -22 -8 -21 -23 14 l-16 36 0 -58 c0 -59 -22
-111 -70 -169 -16 -19 -16 -19 -10 -1 3 11 8 47 10 80 4 54 4 57 -5 23 -14
-54 -51 -122 -59 -109 -4 6 -27 -14 -56 -49 -28 -33 -78 -87 -112 -120 -33
-32 -96 -107 -139 -166 -101 -141 -97 -138 -90 -68 l6 60 -15 -55 c-18 -62
-46 -124 -100 -220 l-37 -65 57 55 c31 30 101 114 154 185 92 123 335 386 311
337 -20 -41 -3 -35 30 10 25 34 31 38 26 18 -3 -14 -10 -56 -16 -93 -6 -38
-31 -123 -56 -190 -46 -123 -119 -287 -127 -287 -3 0 1 24 9 52 7 29 13 91 13
138 l-1 85 -13 -90 c-24 -173 -58 -253 -170 -405 -76 -102 -127 -186 -140
-230 -5 -17 6 -7 35 30 24 30 71 87 104 125 192 219 260 331 327 534 l37 115
12 -44 c17 -61 33 -161 31 -190 -3 -61 -69 -213 -140 -320 -64 -97 -196 -225
-321 -310 -152 -103 -211 -171 -210 -242 1 -19 3 -18 15 10 26 61 74 110 193
199 340 255 493 510 511 853 l6 115 31 -60 c39 -75 60 -147 73 -251 13 -101 2
-180 -37 -273 -17 -39 -28 -71 -26 -71 2 0 17 27 34 60 87 173 80 349 -24 614
-75 191 -75 186 -33 244 68 92 81 134 80 257 -1 61 -7 133 -15 160 -13 49 -13
51 19 104 51 85 68 145 68 246 0 50 -3 105 -7 123 -7 28 -5 32 13 32 11 0 34
8 52 17 30 16 30 18 10 21 -13 2 -42 23 -66 46 -51 49 -82 121 -99 232 l-11
73 46 96 c31 64 54 99 67 102 20 5 20 13 4 75 -3 11 9 26 38 46 24 17 60 48
80 69 35 36 37 41 28 73 -21 72 -12 165 23 258 70 182 110 376 111 538 1 115
0 123 -29 179 -40 78 -94 109 -176 102 -96 -8 -163 -54 -299 -203 -44 -47
-119 -118 -167 -156 -48 -38 -102 -83 -119 -100 l-32 -30 -9 28 -9 27 -41 -62
c-23 -34 -45 -70 -48 -81 -5 -16 -10 -18 -33 -9 -101 39 -371 80 -527 80 -109
0 -289 -23 -400 -51 -51 -13 -72 -15 -77 -6 -38 66 -88 114 -88 86 0 -21 -20
-9 -46 28 -25 35 -26 36 -20 9 l7 -29 -45 32 c-25 18 -118 108 -208 199 -135
139 -174 173 -228 199 -77 38 -149 48 -203 28z m191 -66 c49 -23 96 -62 220
-182 86 -84 189 -181 228 -216 46 -40 75 -74 81 -95 l9 -32 21 34 21 33 16
-30 c19 -38 20 -42 3 -42 -7 0 -52 -27 -100 -59 -48 -33 -87 -58 -87 -56 0 1
13 29 30 60 39 74 39 106 0 38 -17 -29 -32 -53 -34 -53 -2 0 -13 27 -25 59
-26 72 -84 153 -178 248 -202 204 -334 174 -363 -84 -24 -213 39 -438 157
-559 64 -66 23 -55 -50 14 -38 36 -53 46 -40 27 17 -25 69 -119 82 -149 2 -5
-18 -6 -45 -3 -61 7 -74 24 -74 104 0 49 -9 86 -41 170 -94 248 -132 611 -75
722 45 86 131 105 244 51z m2384 -230 c62 -123 -48 -523 -158 -575 -34 -16
-81 -20 -100 -7 -8 5 2 28 32 75 24 37 41 67 38 67 -3 0 -33 -26 -66 -57 l-61
-58 23 45 c12 25 43 74 68 110 43 63 44 64 11 35 -18 -16 -39 -37 -45 -45 -41
-51 -46 -56 -28 -25 9 17 45 61 78 100 56 64 58 67 21 40 -43 -32 -41 -28 21
49 37 47 38 49 9 30 l-29 -19 34 50 34 50 -42 -35 c-23 -19 -42 -38 -42 -41 0
-4 -21 -24 -47 -45 -45 -37 -47 -37 -27 -9 12 17 35 60 52 96 18 37 58 95 94
133 46 51 56 67 39 61 -17 -5 -21 -4 -16 4 4 7 24 11 48 9 37 -3 44 -7 59 -38z
m-2352 -2 c18 -13 49 -43 69 -67 l36 -44 -40 22 c-22 11 -42 21 -45 21 -3 0
28 -35 68 -77 41 -43 83 -91 95 -108 24 -35 25 -35 -82 55 -59 50 -63 52 -47
23 23 -45 21 -46 -26 -22 l-43 21 31 -33 c16 -19 37 -43 45 -53 13 -18 13 -19
-9 -7 -38 20 -37 5 4 -44 22 -26 38 -51 37 -56 -2 -5 1 -9 6 -9 11 0 71 -89
71 -104 -1 -6 -9 3 -18 20 -19 35 -64 86 -108 124 l-29 25 21 -25 c11 -14 33
-45 49 -70 l29 -45 -35 26 c-62 46 -65 41 -8 -13 31 -29 59 -62 63 -73 5 -17
4 -18 -6 -5 -7 8 -22 22 -33 30 -18 13 -18 12 1 -10 12 -14 29 -39 38 -56 15
-32 15 -32 -16 -45 -30 -12 -32 -11 -67 27 -20 21 -51 57 -70 79 l-33 40 22
-45 c12 -25 33 -59 46 -77 13 -17 24 -34 24 -37 0 -12 -37 -6 -56 9 -25 19
-40 19 -24 -1 19 -21 49 -37 90 -44 l35 -7 -38 -7 c-28 -6 -43 -4 -62 8 -100
66 -166 304 -135 493 14 90 30 133 59 162 27 27 50 26 91 -1z m295 -291 c8
-28 15 -67 15 -86 l0 -36 -25 53 c-25 53 -34 91 -15 62 8 -13 10 -13 10 1 0 9
-18 45 -40 80 l-41 64 41 -44 c24 -26 46 -63 55 -94z m1679 57 c-24 -36 -42
-69 -39 -74 3 -4 -2 -23 -10 -41 -13 -31 -14 -32 -15 -9 0 48 21 98 61 144 22
25 42 46 44 46 2 0 -17 -30 -41 -66z m-4 -48 c0 -2 -8 -10 -17 -17 -16 -13
-17 -12 -4 4 13 16 21 21 21 13z m-1865 -446 c-3 -5 -16 -10 -28 -9 -20 1 -20
2 3 9 14 4 26 8 28 9 2 1 0 -3 -3 -9z m-141 -139 c3 -5 -1 -14 -8 -21 -12 -9
-20 -8 -40 5 -14 10 -26 19 -26 21 0 8 69 4 74 -5z m2106 -1285 c0 -2 -8 -10
-17 -17 -16 -13 -17 -12 -4 4 13 16 21 21 21 13z m29 -636 c8 0 -3 -228 -11
-235 -3 -4 -9 18 -13 47 -4 29 -14 70 -21 92 -15 42 -19 87 -5 51 7 -15 10 -5
17 40 7 56 8 58 18 33 5 -16 12 -28 15 -28z m-22 -282 c-3 -8 -6 -5 -6 6 -1
11 2 17 5 13 3 -3 4 -12 1 -19z"/>
<path d="M2220 4096 c-44 -12 -133 -55 -117 -56 5 0 17 5 27 10 11 6 59 21
107 34 51 14 75 25 58 25 -16 0 -50 -6 -75 -13z"/>
<path d="M2706 4095 c102 -23 176 -53 212 -87 33 -32 34 -32 17 -5 -34 53
-167 108 -255 106 -29 -1 -25 -3 26 -14z"/>
<path d="M2330 3830 c1 -8 19 -51 41 -95 22 -44 37 -69 33 -56 -10 37 -74 168
-74 151z"/>
<path d="M2233 3775 c55 -55 96 -120 114 -184 l13 -46 -4 42 c-8 79 -76 187
-139 220 -28 14 -26 11 16 -32z"/>
<path d="M2691 3764 c-47 -43 -61 -52 -62 -38 -1 28 -39 -137 -38 -166 1 -15
4 -9 9 17 13 64 45 117 109 183 74 76 62 78 -18 4z"/>
<path d="M2631 3764 c0 -11 3 -14 6 -6 3 7 2 16 -1 19 -3 4 -6 -2 -5 -13z"/>
<path d="M2845 3747 c-56 -23 -84 -48 -110 -100 -38 -77 -35 -152 10 -246 50
-105 45 -143 -16 -101 -36 26 -68 75 -98 150 l-22 55 6 -45 c10 -78 53 -139
134 -193 113 -75 174 -177 212 -348 11 -51 31 -125 45 -163 l25 -69 -48 7
c-33 4 -43 3 -33 -4 8 -5 26 -10 41 -10 32 0 49 -17 49 -48 0 -22 -3 -24 -36
-18 -19 4 -43 10 -51 13 -10 4 -14 2 -10 -4 4 -6 30 -14 57 -18 44 -6 51 -10
56 -33 3 -15 8 -36 11 -46 6 -20 -2 -17 -94 42 -13 8 -23 12 -23 9 0 -3 16
-15 35 -27 19 -12 32 -27 29 -32 -4 -7 -2 -8 4 -4 19 12 50 -12 57 -45 9 -38
-1 -111 -18 -132 -10 -13 -18 -9 -56 34 -40 46 -43 52 -28 66 14 14 18 14 34
2 17 -13 17 -13 3 6 -22 30 -51 54 -85 70 -16 9 -21 10 -11 3 10 -7 31 -23 45
-35 24 -20 25 -23 9 -39 -16 -16 -19 -15 -65 23 -75 62 -84 62 -18 0 l60 -55
-37 -16 c-46 -20 -85 -20 -121 -1 -15 8 -25 9 -21 4 3 -6 21 -17 39 -25 35
-14 66 -9 122 20 l31 16 37 -41 c36 -40 36 -41 18 -61 -30 -34 -69 -48 -130
-48 -61 0 -149 32 -138 49 3 6 -8 25 -24 43 -19 20 -31 27 -31 18 0 -8 12 -25
28 -38 36 -31 26 -27 -101 38 l-108 55 3 70 3 70 60 21 c70 25 155 96 187 158
14 26 22 60 22 93 0 43 -5 58 -30 90 -17 21 -51 49 -75 63 -40 23 -56 25 -191
28 -137 4 -151 2 -194 -19 -61 -29 -104 -95 -104 -158 0 -93 89 -212 187 -251
82 -33 96 -47 88 -90 -11 -62 -15 -67 -73 -89 -31 -12 -95 -46 -143 -76 -99
-63 -128 -75 -175 -75 -65 0 -144 53 -144 96 0 7 35 41 78 75 92 74 108 89
100 89 -4 0 -33 -21 -63 -46 -31 -25 -63 -43 -70 -40 -9 3 -12 0 -9 -8 5 -14
-33 -53 -43 -43 -3 4 -8 51 -10 105 -3 68 -1 93 6 82 9 -12 11 -11 11 7 0 18
9 23 53 32 l52 10 -54 -4 -53 -4 6 31 c8 39 5 37 57 48 l44 9 -42 -2 c-24 -1
-43 -1 -43 0 0 1 9 25 20 52 11 28 28 94 39 146 33 161 109 291 220 378 63 49
106 123 116 200 6 41 5 40 -18 -19 -37 -97 -101 -175 -128 -158 -15 9 -10 33
21 104 74 169 -4 351 -152 350 -39 0 -128 -31 -128 -45 0 -3 15 2 33 12 48 26
134 23 174 -5 89 -63 99 -243 18 -307 -8 -5 -15 -19 -17 -30 -2 -13 -11 1 -27
42 -12 34 -31 69 -42 79 -27 25 -101 30 -152 10 -39 -15 -134 -96 -112 -96 13
0 -36 -50 -70 -71 -27 -17 -28 -19 -8 -19 14 0 37 -18 64 -50 60 -71 94 -90
163 -90 31 0 73 7 93 15 19 8 39 15 43 15 5 0 -13 -43 -40 -95 -33 -65 -56
-127 -70 -193 -24 -106 -76 -242 -94 -242 -6 0 -33 -16 -60 -35 -27 -19 -53
-35 -58 -35 -12 0 -10 156 4 185 6 14 25 34 42 45 39 23 66 53 96 105 30 49 1
30 -30 -20 -12 -19 -43 -50 -71 -70 -27 -19 -54 -48 -60 -63 -11 -29 -14 -134
-4 -173 4 -20 -2 -29 -45 -56 -27 -18 -54 -33 -59 -33 -20 0 -60 87 -71 155
-10 61 -7 185 6 255 3 18 2 21 -5 10 -16 -27 -34 -192 -28 -257 7 -68 33 -139
60 -162 25 -20 22 -25 -33 -51 -27 -13 -48 -25 -46 -28 3 -2 28 8 56 22 l52
26 40 -29 40 -30 -33 -6 c-186 -33 -208 -45 -41 -21 50 7 92 11 92 8 0 -3 -8
-11 -17 -18 -16 -12 -16 -12 5 -7 12 3 22 9 22 14 0 5 5 9 12 9 6 0 0 -12 -14
-27 -15 -16 -28 -35 -30 -43 -2 -8 -19 -26 -38 -41 -19 -14 -50 -48 -69 -75
l-34 -49 53 59 c54 59 184 151 200 141 4 -3 13 -19 19 -36 10 -28 7 -34 -31
-77 l-42 -47 46 43 c44 43 46 43 51 20 8 -32 72 -105 108 -124 16 -8 50 -16
74 -18 38 -3 54 -12 94 -49 73 -68 157 -92 326 -92 72 0 145 4 163 8 18 5 32
5 31 0 -1 -4 11 -35 26 -68 35 -73 43 -152 21 -215 -13 -38 -13 -42 0 -25 22
30 37 95 32 145 -4 36 -35 118 -65 170 -2 3 13 12 33 19 19 7 60 33 90 57 45
37 61 44 96 44 24 0 66 11 93 24 48 22 105 75 105 97 0 21 23 -6 45 -52 12
-27 25 -45 29 -41 4 4 5 -7 2 -23 -6 -27 -6 -28 4 -6 10 23 0 48 -50 127 -14
23 -8 54 11 54 7 0 33 -21 58 -47 25 -27 39 -39 31 -28 -8 11 -29 36 -48 56
-33 36 -34 37 -17 68 24 47 40 48 90 6 26 -21 45 -31 45 -23 1 7 26 -14 58
-47 31 -33 50 -51 42 -40 -27 38 -103 114 -111 110 -4 -3 -10 2 -13 11 -3 8
-10 13 -15 9 -5 -3 -12 -1 -16 5 -4 6 5 10 21 10 40 0 23 10 -20 12 -20 1 -40
6 -43 12 -3 6 -2 8 2 3 5 -4 19 2 31 14 23 21 24 21 86 4 35 -9 81 -15 103
-12 l40 4 -46 1 c-50 2 -149 29 -149 40 0 4 7 17 15 29 14 20 17 20 62 7 25
-8 48 -12 51 -10 2 3 -14 10 -37 17 -23 7 -41 16 -41 21 0 5 12 26 26 47 14
21 36 70 49 107 21 58 24 87 23 174 l-1 105 -8 -83 c-9 -98 -28 -159 -81 -264
-38 -78 -43 -83 -72 -72 -25 10 -19 34 29 114 38 63 45 82 44 125 0 27 -4 59
-8 70 -5 13 -8 1 -7 -35 0 -48 -7 -71 -50 -157 -50 -100 -51 -101 -70 -83 -10
11 -43 33 -73 49 -51 28 -56 33 -79 98 -13 37 -37 115 -53 173 -17 58 -46 141
-65 185 -54 121 -54 116 -3 98 117 -40 192 -22 262 62 29 35 45 45 67 45 42 0
37 14 -10 33 -22 8 -39 19 -38 24 2 4 -1 9 -5 10 -4 1 -23 15 -41 31 -48 42
-116 66 -167 59 -51 -7 -39 11 14 20 50 8 78 -1 134 -43 l48 -35 -46 44 c-48
47 -96 67 -160 67 -49 0 -86 -32 -116 -98 l-24 -55 -26 36 c-14 21 -30 37 -35
37 -4 0 -8 6 -8 14 0 8 -4 16 -9 18 -6 2 -15 23 -22 48 -22 84 29 185 107 210
36 12 141 9 179 -4 11 -4 7 0 -9 9 -37 22 -132 28 -171 12z m-814 -278 c23
-19 23 -20 2 -10 -49 24 -150 6 -182 -32 -7 -10 -18 -17 -24 -17 -15 0 23 40
58 61 42 26 116 25 146 -2z m-6 -64 c0 -22 -31 -33 -47 -17 -17 17 -1 44 24
40 15 -2 23 -10 23 -23z m985 10 c16 -19 4 -35 -25 -35 -32 0 -42 20 -20 37
24 17 30 16 45 -2z m-1099 -105 c38 -38 73 -39 113 -2 17 15 24 18 16 8 -10
-13 -11 -17 -2 -12 7 4 19 22 26 39 l14 32 1 -31 c1 -33 -26 -66 -57 -69 -9
-1 -25 -6 -35 -10 -9 -4 -29 -4 -45 1 -15 4 -31 6 -35 5 -5 -1 -6 3 -3 8 6 9
-23 38 -33 33 -3 -2 -7 2 -9 10 -2 9 0 8 8 -2 8 -12 10 -7 7 20 -2 19 -2 27 0
18 2 -10 18 -31 34 -48z m1219 41 c0 -22 -43 -77 -62 -79 -7 -1 -31 -5 -54 -8
-37 -5 -43 -3 -72 30 -30 34 -40 56 -26 56 3 0 15 -12 26 -26 30 -37 62 -47
102 -30 19 8 39 22 45 33 11 16 11 15 6 -7 -6 -24 -5 -24 9 -6 9 11 16 28 16
38 0 10 2 18 5 18 3 0 5 -9 5 -19z m-1239 -104 c25 -17 42 -19 107 -15 54 4
68 3 47 -3 -48 -15 -120 -12 -153 5 -30 15 -82 74 -82 91 0 5 11 -6 25 -25 14
-19 39 -43 56 -53z m1029 41 c0 -4 -7 -8 -15 -8 -10 0 -15 10 -15 28 1 26 1
26 15 8 8 -11 15 -23 15 -28z m237 -1 c-32 -42 -83 -67 -134 -66 l-38 1 46 8
c61 10 82 23 115 65 15 20 29 33 32 31 3 -3 -7 -21 -21 -39z m-525 -317 c20
-6 51 -22 68 -36 25 -21 30 -33 30 -67 l0 -42 -19 24 c-14 18 -33 26 -72 31
-79 11 -278 0 -314 -17 -27 -13 -28 -12 -11 1 19 16 202 76 229 76 9 0 18 4
21 9 13 21 -162 28 -229 10 -21 -6 -54 -26 -72 -44 -42 -42 -45 -93 -8 -130
16 -17 19 -25 10 -25 -19 0 -45 51 -45 87 0 60 59 121 127 132 52 9 242 2 285
-9z m111 -188 c-11 -15 -31 -28 -44 -30 -20 -2 -19 0 8 12 17 8 34 24 38 36 4
12 9 19 13 16 3 -4 -3 -19 -15 -34z m-333 -37 c0 -25 -42 -65 -67 -65 -10 0
-13 -6 -9 -16 4 -11 -2 -10 -24 6 -39 28 -38 36 4 37 48 1 76 19 76 49 0 14 4
22 10 19 6 -3 10 -17 10 -30z m198 -36 c15 -6 39 -8 55 -5 35 7 34 -5 -3 -32
-24 -18 -30 -20 -30 -7 0 8 -8 15 -17 15 -30 0 -53 31 -52 69 l1 36 9 -33 c7
-22 19 -36 37 -43z m-716 -46 c-6 -2 -10 -9 -7 -13 13 -20 -9 -57 -45 -78 -47
-27 -46 -27 -53 -2 -4 15 3 27 21 40 15 11 32 21 37 21 6 1 16 10 23 20 7 11
19 19 25 18 9 0 8 -2 -1 -6z m1227 -22 c58 -30 101 -75 101 -106 l0 -27 -37
30 c-21 16 -49 35 -63 42 -32 17 -29 13 -40 49 -10 37 -10 37 39 12z m-1348
-73 c1 -7 2 -31 4 -54 1 -22 7 -50 14 -62 6 -12 8 -22 2 -22 -10 0 -131 79
-131 86 0 6 92 64 102 64 4 0 8 -6 9 -12z m94 -51 c-3 -38 3 -74 21 -126 14
-41 23 -75 21 -78 -5 -4 -45 93 -50 122 -2 11 -9 33 -15 48 -16 39 -15 58 6
73 9 7 18 14 19 14 1 0 0 -24 -2 -53z m1275 33 c24 -17 27 -24 21 -52 -8 -38
-21 -41 -37 -7 -15 32 -26 79 -18 79 3 0 18 -9 34 -20z m124 -21 c-20 -23 -34
-16 -34 16 0 23 2 24 25 13 24 -11 24 -12 9 -29z m-124 -119 c-4 -16 -13 -37
-20 -47 -10 -16 -11 -15 -6 7 3 14 6 40 6 59 0 28 2 31 14 22 10 -9 12 -20 6
-41z m-1322 -2 c-3 -7 -27 -25 -54 -41 l-49 -29 40 41 c37 39 71 55 63 29z
m1263 -135 c-5 -10 -22 -29 -37 -43 -23 -21 -22 -18 7 17 37 46 45 53 30 26z
m-1074 -63 c21 -7 54 -10 82 -6 25 4 52 7 59 8 6 1 12 4 12 8 0 8 104 60 120
60 7 0 8 -6 0 -19 -17 -32 -11 -43 12 -22 11 11 26 17 32 13 17 -10 35 -11 42
-1 9 15 24 10 24 -8 0 -14 2 -14 20 2 20 18 20 17 20 -8 0 -36 15 -34 30 4
l13 31 14 -33 c10 -25 16 -30 22 -20 5 7 6 23 3 35 -5 20 -4 20 22 -3 24 -23
26 -23 26 -5 1 17 2 17 20 -5 15 -18 20 -19 20 -7 0 19 -1 19 39 5 17 -6 31
-15 31 -21 0 -5 5 -6 10 -3 6 3 10 15 10 26 0 16 4 19 23 14 34 -11 65 -33 83
-60 9 -14 21 -22 30 -18 10 4 12 9 4 18 -8 9 5 12 57 11 38 -1 80 2 96 7 15 4
27 4 27 -1 0 -12 -70 -32 -109 -32 -38 0 -62 -11 -118 -57 -81 -65 -122 -77
-285 -81 -109 -3 -148 -1 -148 8 0 7 -8 9 -20 5 -28 -9 -95 24 -161 79 -42 35
-64 46 -90 46 -60 0 -107 19 -134 54 -33 43 -32 56 0 17 14 -16 42 -35 62 -41z"/>
<path d="M2015 3290 c-3 -5 -1 -10 4 -10 6 0 11 5 11 10 0 6 -2 10 -4 10 -3 0
-8 -4 -11 -10z"/>
<path d="M2310 2162 c0 -28 23 -54 63 -73 62 -27 79 -23 21 6 -27 13 -57 37
-66 52 -10 15 -18 22 -18 15z"/>
<path d="M2631 2135 c-18 -19 -51 -41 -74 -49 -24 -8 -33 -15 -22 -15 33 -1
102 36 121 63 25 39 13 39 -25 1z"/>
<path d="M1904 3678 l-19 -23 23 19 c21 18 27 26 19 26 -2 0 -12 -10 -23 -22z"/>
<path d="M2914 3669 c-36 -10 -59 -34 -68 -69 -6 -19 -5 -21 3 -10 6 8 11 11
11 7 0 -5 12 6 26 23 15 17 41 37 58 45 35 15 17 18 -30 4z"/>
<path d="M1995 3663 c51 -11 77 -29 100 -67 l25 -41 0 33 c0 51 -37 82 -97 81
-26 -1 -39 -3 -28 -6z"/>
<path d="M3500 3656 c0 -2 8 -10 18 -17 15 -13 16 -12 3 4 -13 16 -21 21 -21
13z"/>
<path d="M1963 3573 c9 -2 23 -2 30 0 6 3 -1 5 -18 5 -16 0 -22 -2 -12 -5z"/>
<path d="M2964 3564 c-10 -8 -12 -12 -4 -8 8 5 35 11 60 15 l45 6 -41 2 c-23
0 -48 -5 -60 -15z"/>
<path d="M3180 3506 c0 -2 8 -10 18 -17 15 -13 16 -12 3 4 -13 16 -21 21 -21
13z"/>
<path d="M3219 3453 c5 -10 24 -34 41 -53 28 -32 28 -30 -6 18 -35 50 -55 70
-35 35z"/>
<path d="M2484 3280 c0 -80 2 -112 3 -72 2 39 2 105 0 145 -1 39 -3 7 -3 -73z"/>
<path d="M1729 3393 c-13 -16 -12 -17 4 -4 16 13 21 21 13 21 -2 0 -10 -8 -17
-17z"/>
<path d="M2630 3277 c8 -8 40 -29 70 -46 40 -23 48 -25 28 -9 -35 29 -118 76
-98 55z"/>
<path d="M2271 3235 c-63 -46 -87 -74 -28 -34 89 63 109 79 100 79 -6 0 -38
-20 -72 -45z"/>
<path d="M1604 3183 c-12 -26 -19 -64 -20 -118 l-3 -80 9 76 c5 43 16 94 25
115 20 49 13 55 -11 7z"/>
<path d="M3375 3187 c10 -15 21 -42 26 -60 8 -30 8 -30 4 7 -2 23 -14 49 -26
60 l-21 21 17 -28z"/>
<path d="M1989 3153 c-13 -16 -12 -17 4 -4 16 13 21 21 13 21 -2 0 -10 -8 -17
-17z"/>
<path d="M2276 3153 c-119 -36 -237 -164 -261 -283 -5 -26 3 -16 29 38 59 120
144 198 268 242 63 23 35 25 -36 3z"/>
<path d="M3167 3138 c-22 -19 -54 -34 -80 -39 l-42 -6 43 -2 c37 -1 48 4 85
39 50 47 47 51 -6 8z"/>
<path d="M2658 3141 c110 -33 195 -104 254 -215 37 -70 35 -49 -3 26 -37 73
-113 152 -172 178 -23 10 -64 21 -92 24 l-50 6 63 -19z"/>
<path d="M1931 3117 c-29 -17 -38 -19 -65 -9 -28 10 -29 10 -12 -3 11 -8 27
-15 35 -15 17 0 81 36 81 45 0 7 1 7 -39 -18z"/>
<path d="M1781 3095 c-1 -30 33 -97 59 -120 22 -19 22 -18 -2 15 -14 19 -33
55 -42 80 -8 25 -15 36 -15 25z"/>
<path d="M2285 3086 c-16 -8 -48 -30 -70 -51 l-40 -37 38 27 c21 14 57 37 80
51 45 26 41 32 -8 10z"/>
<path d="M2680 3070 c30 -17 70 -45 89 -63 25 -24 30 -26 20 -9 -16 27 -103
87 -139 97 -14 3 0 -8 30 -25z"/>
<path d="M3235 3021 c-23 -36 -42 -51 -85 -69 -54 -23 -54 -23 -15 -18 50 7
84 32 114 85 32 57 23 59 -14 2z"/>
<path d="M3020 2970 c11 -22 23 -40 25 -40 3 0 -4 18 -15 40 -11 22 -23 40
-25 40 -3 0 4 -18 15 -40z"/>
<path d="M1640 2885 c-5 -97 19 -174 70 -220 18 -16 14 -5 -16 52 -27 53 -39
90 -44 140 -6 53 -8 59 -10 28z"/>
<path d="M2105 2630 c-3 -5 -2 -10 4 -10 5 0 13 5 16 10 3 6 2 10 -4 10 -5 0
-13 -4 -16 -10z"/>
<path d="M2848 2633 c7 -3 16 -2 19 1 4 3 -2 6 -13 5 -11 0 -14 -3 -6 -6z"/>
<path d="M1935 2523 c1 -12 -2 -24 -6 -25 -4 -2 1 -14 12 -28 20 -24 20 -24 9
-2 -14 28 -16 25 40 46 41 15 29 15 -27 0 -15 -4 -23 -1 -26 13 -3 11 -3 10
-2 -4z"/>
<path d="M2164 2518 l-19 -23 23 19 c21 18 27 26 19 26 -2 0 -12 -10 -23 -22z"/>
<path d="M2760 2516 c0 -2 12 -12 28 -21 l27 -18 -19 21 c-17 20 -36 29 -36
18z"/>
<path d="M2225 2499 c-11 -17 1 -21 15 -4 8 9 8 15 2 15 -6 0 -14 -5 -17 -11z"/>
<path d="M2006 2397 c13 -36 118 -41 139 -7 6 9 2 9 -13 1 -29 -15 -68 -14
-102 4 -24 12 -28 13 -24 2z"/>
<path d="M2177 2341 c-11 -14 -10 -14 6 -2 20 15 23 2 5 -18 -10 -11 -10 -12
-1 -7 7 4 17 15 22 25 13 23 -14 25 -32 2z"/>
<path d="M2103 2098 c19 -30 22 -76 17 -208 -3 -62 1 -99 14 -137 23 -71 38
-77 20 -9 -10 36 -13 98 -12 190 l3 135 -29 28 -29 28 16 -27z"/>
<path d="M2842 2097 c-32 -34 -29 -101 9 -195 23 -55 33 -99 37 -155 6 -101
-13 -154 -82 -221 -39 -38 -44 -45 -20 -33 37 20 87 72 109 116 10 19 20 66
24 105 l7 71 19 -55 c20 -59 26 -180 12 -260 -5 -30 -4 -40 2 -30 6 8 15 45
22 82 19 105 1 187 -71 334 -75 151 -82 188 -45 232 32 38 11 46 -23 9z"/>
<path d="M1490 2075 c0 -5 5 -17 10 -25 5 -8 10 -10 10 -5 0 6 -5 17 -10 25
-5 8 -10 11 -10 5z"/>
<path d="M2323 1993 c4 -3 2 -12 -4 -19 -6 -7 -18 -39 -28 -71 -15 -49 -16
-65 -6 -103 19 -73 40 -105 121 -177 42 -37 83 -81 91 -98 l14 -30 -6 29 c-7
35 -24 57 -86 113 -102 94 -127 199 -83 346 3 10 0 17 -7 17 -7 0 -9 -3 -6 -7z"/>
<path d="M2100 1742 c-1 -44 73 -133 140 -167 45 -23 36 -12 -16 21 -49 31
-87 75 -109 126 -8 18 -14 27 -15 20z"/>
<path d="M3112 1720 c0 -19 2 -27 5 -17 2 9 2 25 0 35 -3 9 -5 1 -5 -18z"/>
<path d="M3193 1690 c0 -25 2 -35 4 -22 2 12 2 32 0 45 -2 12 -4 2 -4 -23z"/>
<path d="M1561 1710 c0 -8 4 -22 9 -30 12 -18 12 -2 0 25 -6 13 -9 15 -9 5z"/>
<path d="M1961 1646 c-6 -25 -11 -83 -11 -129 0 -142 43 -232 188 -394 103
-116 147 -175 181 -242 46 -92 48 -114 10 -160 -17 -22 -37 -62 -44 -87 l-12
-47 -11 44 c-11 45 -48 104 -143 234 -74 101 -56 42 31 -102 38 -63 78 -139
90 -171 30 -81 112 -263 116 -259 2 2 -7 37 -21 78 -61 177 -47 235 84 356 48
45 102 103 119 128 27 41 31 44 34 23 3 -17 8 -9 20 32 10 30 34 82 54 115 57
95 83 150 90 192 6 42 -10 118 -27 129 -8 4 -9 -1 -3 -17 22 -70 -8 -180 -80
-286 -31 -45 -31 -45 -6 35 29 93 25 133 -4 49 -49 -137 -153 -324 -210 -376
l-26 -24 0 49 c0 68 -23 149 -78 278 -52 123 -66 128 -27 10 42 -126 46 -142
32 -120 -7 10 -52 71 -102 136 -49 65 -96 126 -103 136 -11 17 -12 17 -8 2 9
-32 -2 -19 -40 45 -21 34 -42 65 -47 68 -5 3 -8 8 -7 10 1 2 -4 17 -10 34 -18
48 -28 158 -19 215 10 67 5 76 -10 16z"/>
<path d="M1586 1640 c3 -14 11 -32 16 -40 6 -10 7 -7 2 10 -3 14 -11 32 -16
40 -6 10 -7 7 -2 -10z"/>
<path d="M3103 1615 c0 -22 2 -30 4 -17 2 12 2 30 0 40 -3 9 -5 -1 -4 -23z"/>
<path d="M2905 1408 c-2 -7 -6 -31 -10 -53 -13 -81 -64 -166 -146 -245 -93
-90 -119 -131 -118 -185 1 -38 1 -39 8 -10 12 51 30 75 131 181 111 117 140
168 148 260 4 57 -2 85 -13 52z"/>
<path d="M2280 1369 c0 -31 53 -125 110 -196 37 -46 65 -92 72 -119 7 -24 16
-44 21 -44 17 0 -4 95 -40 175 -19 44 -41 103 -48 130 -12 47 -13 48 -14 15 0
-19 6 -53 14 -75 8 -21 13 -41 11 -43 -5 -4 -58 64 -95 122 -17 28 -31 43 -31
35z"/>
<path d="M2641 1254 c0 -11 3 -14 6 -6 3 7 2 16 -1 19 -3 4 -6 -2 -5 -13z"/>
<path d="M3032 1067 c-59 -122 -98 -234 -90 -259 2 -6 20 33 40 88 20 54 55
141 77 193 23 51 41 97 39 101 -2 4 -31 -52 -66 -123z"/>
<path d="M2910 1047 c46 -130 -66 -302 -296 -453 -65 -43 -120 -87 -132 -106
-23 -37 -24 -36 -46 57 -8 33 -15 49 -15 35 0 -14 6 -52 14 -85 8 -33 15 -78
15 -100 l1 -40 14 33 c28 64 58 94 174 171 180 121 285 250 298 366 7 54 -2
105 -22 131 -14 18 -14 17 -5 -9z"/>
<path d="M1780 973 c0 -4 14 -33 32 -63 46 -81 129 -156 284 -260 150 -99 147
-80 -6 33 -107 80 -214 178 -271 250 -22 27 -39 45 -39 40z"/>
<path d="M2707 952 c-22 -24 -47 -86 -46 -114 0 -13 6 -3 13 23 6 25 22 60 35
77 24 35 24 42 -2 14z"/>
<path d="M2412 635 c0 -16 2 -22 5 -12 2 9 2 23 0 30 -3 6 -5 -1 -5 -18z"/>
</g>
</svg>